<svg width="89" height="100" viewBox="0 0 89 100" fill="none" xmlns="http://www.w3.org/2000/svg">
<path d="M84.9105 25.8999C85.0798 18.6894 84.6565 6.12393 80.0847 0.881847C77.58 -1.98966 71.6254 2.815 67.7732 6.52608C61.3881 3.4147 53.5426 1.8837 44.0039 1.8837C34.4651 1.8837 26.6267 3.42175 20.2487 6.52608C16.3824 2.80794 10.4348 -1.99671 7.93015 0.874792C3.36538 6.10982 2.935 18.633 3.10433 25.8505C1.04418 31.4948 0 38.0844 0 45.6124C0 61.4304 4.5295 73.1422 13.4544 80.4726C19.4656 85.3972 27.3181 88.2335 37.3225 89.0872C36.1513 89.6727 34.9378 90.2442 33.689 90.8863L30.0626 92.6642L28.0025 93.6731C26.0058 94.7173 23.9457 95.6415 21.7303 97.0032L21.18 97.2925C21.0248 97.4053 20.8766 97.5958 20.8484 97.8075C20.7778 98.2097 21.053 98.5906 21.4552 98.6471C23.473 98.9505 25.4696 99.3456 27.5157 99.5219L29.0396 99.6913C29.5405 99.7477 30.0485 99.79 30.5635 99.8183L33.6255 99.9876C37.7247 100.058 41.852 99.8324 45.9441 99.1903C50.0291 98.5765 54.0436 97.4336 57.9028 95.8461C61.7409 94.2587 65.4167 92.1915 68.7397 89.6727C75.3294 84.5577 80.508 77.6717 83.5911 69.9955C84.72 67.2157 85.5596 64.3301 86.1663 61.4022C87.3869 56.7034 88.0078 51.4401 88.0078 45.6124C88.0078 38.1126 86.9636 31.5371 84.9175 25.8999H84.9105Z" fill="#6842FF"/>
<path d="M61.5433 87.1399C56.4706 88.6215 50.65 89.3553 43.9968 89.3553H43.9827C43.3548 89.3553 42.7057 89.3482 42.0566 89.327C40.7232 89.2988 39.432 89.2353 38.1691 89.1436C37.8799 89.1224 37.5906 89.1013 37.3154 89.0801C36.1443 89.6586 34.9308 90.2372 33.682 90.8792L30.0555 92.6571C31.77 92.77 33.7949 92.897 35.594 92.897C46.2545 92.897 54.7985 90.9991 61.5433 87.1399Z" fill="#492EB3"/>
<path d="M43.9967 73.5303C60.8588 73.5303 72.0838 68.7891 72.0838 45.6124C72.0838 34.6697 69.5651 27.2828 64.4147 23.0355C60.0545 19.4514 53.3661 17.6946 43.9967 17.6946C34.6273 17.6946 27.9388 19.4373 23.5787 23.0355C18.4142 27.2757 15.9095 34.6767 15.9095 45.6124C15.9095 68.7891 27.1345 73.5303 43.9967 73.5303Z" fill="white"/>
<path d="M35.0367 39.6789C35.0367 37.5976 36.4195 35.8338 38.3174 35.2412C37.2732 34.2746 35.8763 33.6819 34.3382 33.6819C31.114 33.6819 28.4753 36.3065 28.4753 39.5096V51.165C28.4753 54.3681 31.114 56.9926 34.3382 56.9926C37.5625 56.9926 40.2012 54.3751 40.2012 51.165V44.3072C40.0389 44.3213 39.8766 44.3354 39.7144 44.3354C37.1251 44.3354 35.0297 42.2541 35.0297 39.686L35.0367 39.6789Z" fill="#6842FF"/>
<path d="M54.1424 39.2556C54.1424 37.2449 55.4265 35.5375 57.2256 34.8884C56.2378 34.1335 55.0031 33.6749 53.6626 33.6749C50.4384 33.6749 47.7997 36.2995 47.7997 39.5026V51.1579C47.7997 54.361 50.4384 56.9856 53.6626 56.9856C56.8869 56.9856 59.5256 54.3681 59.5256 51.1579V43.8557C59.2998 43.891 59.067 43.9121 58.8271 43.9121C56.2378 43.9121 54.1424 41.8308 54.1424 39.2627V39.2556Z" fill="#6842FF"/>
</svg>
